<?xml version="1.0" encoding="UTF-8"?>
<svg xmlns="http://www.w3.org/2000/svg" xmlnsXlink="http://www.w3.org/1999/xlink" width="360pt" height="119.96pt" viewBox="0 0 360 119.96" version="1.1">
<g id="surface1">
<path style=" stroke:none;fill-rule:nonzero;fill:rgb(91.799927%,5.499268%,55.299377%);fill-opacity:1;" d="M 204.347656 62.496094 L 204.347656 30.699219 L 211.011719 31.082031 C 217.496094 31.457031 217.691406 31.582031 218.3125 35.707031 L 218.945313 39.949219 L 222.117188 36.496094 C 225.921875 32.355469 232.046875 29.5625 237.308594 29.5625 C 241.128906 29.5625 241.15625 29.617188 241.15625 36.542969 L 241.15625 43.523438 L 235.488281 43.523438 C 231.003906 43.523438 228.921875 44.316406 225.488281 47.332031 C 219.746094 52.371094 218.3125 58.582031 218.3125 78.355469 L 218.3125 94.296875 L 204.347656 94.296875 Z M 323.023438 95.644531 C 307.664063 91.90625 300.03125 79.867188 301.066406 61.007813 C 301.886719 46.105469 306.351563 38.230469 317.0625 32.816406 C 330.359375 26.09375 351.777344 31.273438 356.953125 42.457031 C 361.527344 52.339844 361.5 52.40625 353.074219 52.40625 C 346.039063 52.40625 345.453125 52.183594 344.703125 49.195313 C 343.734375 45.324219 337.085938 40.996094 332.101563 40.988281 C 322.625 40.976563 316.339844 47.769531 315.148438 59.304688 C 314.164063 68.828125 315.542969 74.59375 320.011719 79.683594 C 327.558594 88.277344 339.4375 86.425781 344.078125 75.933594 C 346.597656 70.238281 346.6875 70.179688 352.835938 70.179688 C 356.253906 70.179688 359.296875 70.605469 359.601563 71.128906 C 359.90625 71.652344 359.382813 74.683594 358.441406 77.867188 C 354.414063 91.441406 338.527344 99.417969 323.023438 95.644531 Z M 274.167969 83.351563 C 276.996094 82.222656 279.863281 80.261719 280.539063 78.992188 C 282.058594 76.160156 282.1875 63.425781 280.691406 64.351563 C 280.097656 64.71875 275.382813 65.671875 270.21875 66.46875 C 259.003906 68.195313 256.660156 69.296875 255.027344 73.597656 C 253.273438 78.214844 254.722656 81.546875 259.367188 83.570313 C 264.671875 85.875 267.984375 85.828125 274.167969 83.351563 Z M 252.894531 95.21875 C 243.4375 91.613281 238.585938 83.230469 240.386719 73.625 C 242.203125 63.9375 247.160156 60.855469 265.523438 57.984375 C 279.195313 55.847656 283.042969 53.925781 283.042969 49.234375 C 283.042969 45.199219 278.863281 42.042969 272.625 41.359375 C 265.539063 40.585938 260.617188 42.578125 257.921875 47.3125 C 255.945313 50.785156 255.164063 51.125 249.089844 51.132813 C 241.648438 51.140625 241.148438 50.308594 244.195313 43.015625 C 249.675781 29.90625 276.015625 25.117188 289.570313 34.769531 C 296 39.347656 297.003906 43.621094 297.003906 66.390625 C 297.003906 82.207031 297.441406 87.648438 298.941406 90.546875 C 300.007813 92.609375 301.578125 94.34375 302.433594 94.40625 C 303.285156 94.472656 302.023438 95.085938 299.625 95.773438 C 293.878906 97.425781 287.375 96.105469 285.074219 92.816406 L 283.222656 90.171875 L 277.667969 92.863281 C 270.796875 96.1875 258.507813 97.359375 252.894531 95.21875 Z M 175.980469 83.332031 C 182.03125 80.460938 185.3125 73.609375 185.3125 63.839844 C 185.3125 50.4375 179.78125 42.414063 169.839844 41.402344 C 158.496094 40.25 151.714844 48.441406 151.75 63.25 C 151.777344 73.714844 154.851563 80.035156 161.519531 83.320313 C 166.789063 85.921875 170.515625 85.921875 175.980469 83.332031 Z M 162.027344 95.058594 C 159.34375 94.058594 155.773438 91.949219 154.09375 90.375 L 151.039063 87.503906 L 151.039063 90.898438 C 151.039063 94.167969 150.78125 94.292969 144.058594 94.292969 L 137.078125 94.292969 L 137.078125 7.984375 L 139.96875 7.984375 C 147.601563 7.984375 152.308594 15.996094 152.308594 28.972656 L 152.308594 37.351563 L 155.800781 34.867188 C 161.117188 31.085938 169.105469 29.128906 175.347656 30.070313 C 188.480469 32.058594 197.003906 41.433594 199.632813 56.785156 C 202.1875 71.703125 196.222656 87.171875 185.484375 93.464844 C 180.171875 96.574219 168.273438 97.386719 162.027344 95.058594 Z M 70.851563 80.6875 C 77.160156 77.695313 82.5 68.726563 82.5 61.128906 C 82.5 53.695313 80.8125 49.046875 76.390625 44.320313 C 62.039063 28.96875 36.050781 39.667969 36.359375 60.800781 C 36.617188 78.628906 54.03125 88.671875 70.851563 80.6875 Z M 105.761719 119.554688 C 98.980469 118.300781 94.144531 115.753906 89.953125 111.226563 C 84.46875 105.300781 83.382813 101.90625 82.75 88.710938 L 82.144531 76.125 L 79.964844 83.164063 C 77.339844 91.648438 71.09375 100.675781 64.867188 104.984375 C 55.433594 111.511719 50.589844 112.476563 24.433594 113.039063 L 0 113.566406 L 0 109.832031 C 0 100.449219 6.332031 90.253906 14.449219 86.566406 C 18.429688 84.761719 22.847656 84.171875 33 84.097656 L 46.328125 84.003906 L 39.089844 81.6875 C 23.730469 76.777344 15 69.164063 9.882813 56.214844 C 7.464844 50.105469 7.058594 46.164063 6.613281 24.621094 L 6.105469 0.00390625 L 11.28125 0.695313 C 19.539063 1.804688 27.703125 6.433594 31.496094 12.164063 C 34.597656 16.84375 34.960938 18.695313 35.539063 32.636719 C 36.035156 44.621094 36.394531 46.917969 37.191406 43.15625 C 38.984375 34.695313 42.914063 27.167969 48.871094 20.800781 C 59.054688 9.914063 70.882813 6.785156 102.027344 6.738281 L 119.652344 6.714844 L 118.871094 12.429688 C 117.292969 23.925781 110.023438 33.21875 100.546875 35.851563 C 97.953125 36.574219 90.972656 37.179688 85.039063 37.203125 L 74.25 37.242188 L 82.652344 40.105469 C 96.703125 44.894531 105.828125 53.851563 109.949219 66.894531 C 112.246094 74.164063 114.089844 117.894531 112.171875 119.566406 C 111.558594 120.097656 108.675781 120.09375 105.761719 119.554688 "/>
</g>
</svg>
