<?xml version="1.0" encoding="UTF-8" standalone="no"?>
<!-- Created with Inkscape (http://www.inkscape.org/) -->

<svg
   xmlns:dc="http://purl.org/dc/elements/1.1/"
   xmlns:cc="http://creativecommons.org/ns#"
   xmlns:rdf="http://www.w3.org/1999/02/22-rdf-syntax-ns#"
   xmlns:svg="http://www.w3.org/2000/svg"
   xmlns="http://www.w3.org/2000/svg"
   xmlns:sodipodi="http://sodipodi.sourceforge.net/DTD/sodipodi-0.dtd"
   xmlns:inkscape="http://www.inkscape.org/namespaces/inkscape"
   width="67.840027mm"
   height="33.939163mm"
   viewBox="0 0 67.840027 33.939163"
   version="1.1"
   id="svg4309"
   inkscape:version="0.92.5 (2060ec1f9f, 2020-04-08)"
   sodipodi:docname="unnoti_logo.svg">
  <defs
     id="defs4303">
    <filter
       filterUnits="userSpaceOnUse"
       height="105.062"
       width="221.588"
       y="48.566002"
       x="85.029999"
       id="Path_1608">
      <feOffset
         id="feOffset889"
         input="SourceAlpha"
         dy="3" />
      <feGaussianBlur
         id="feGaussianBlur891"
         result="blur-7"
         stdDeviation="3" />
      <feFlood
         id="feFlood893"
         flood-opacity="0.161" />
      <feComposite
         result="result1"
         id="feComposite895"
         in2="blur-7"
         operator="in" />
      <feComposite
         id="feComposite897"
         in2="result1"
         in="SourceGraphic" />
    </filter>
    <filter
       filterUnits="userSpaceOnUse"
       height="69.964996"
       width="63.469002"
       y="25.354"
       x="274.23001"
       id="Path_1609">
      <feOffset
         id="feOffset900"
         input="SourceAlpha"
         dy="3" />
      <feGaussianBlur
         id="feGaussianBlur902"
         result="blur-8"
         stdDeviation="3" />
      <feFlood
         id="feFlood904"
         flood-opacity="0.161" />
      <feComposite
         result="result1"
         id="feComposite906"
         in2="blur-8"
         operator="in" />
      <feComposite
         id="feComposite908"
         in2="result1"
         in="SourceGraphic" />
    </filter>
    <filter
       filterUnits="userSpaceOnUse"
       height="30.990999"
       width="82.956001"
       y="25.354"
       x="254.743"
       id="Path_1610">
      <feOffset
         id="feOffset911"
         input="SourceAlpha"
         dy="3" />
      <feGaussianBlur
         id="feGaussianBlur913"
         result="blur-9"
         stdDeviation="3" />
      <feFlood
         id="feFlood915"
         flood-opacity="0.161" />
      <feComposite
         result="result1"
         id="feComposite917"
         in2="blur-9"
         operator="in" />
      <feComposite
         id="feComposite919"
         in2="result1"
         in="SourceGraphic" />
    </filter>
    <filter
       filterUnits="userSpaceOnUse"
       height="36.558998"
       width="69.963997"
       y="25.354"
       x="267.73499"
       id="Path_1611">
      <feOffset
         id="feOffset922"
         input="SourceAlpha"
         dy="3" />
      <feGaussianBlur
         id="feGaussianBlur924"
         result="blur-10"
         stdDeviation="3" />
      <feFlood
         id="feFlood926"
         flood-opacity="0.161" />
      <feComposite
         result="result1"
         id="feComposite928"
         in2="blur-10"
         operator="in" />
      <feComposite
         id="feComposite930"
         in2="result1"
         in="SourceGraphic" />
    </filter>
  </defs>
  <sodipodi:namedview
     id="base"
     pagecolor="#ffffff"
     bordercolor="#666666"
     borderopacity="1.0"
     inkscape:pageopacity="0.0"
     inkscape:pageshadow="2"
     inkscape:zoom="0.35"
     inkscape:cx="15.344487"
     inkscape:cy="69.851296"
     inkscape:document-units="mm"
     inkscape:current-layer="layer1"
     showgrid="false"
     fit-margin-top="0"
     fit-margin-left="0"
     fit-margin-right="0"
     fit-margin-bottom="0"
     inkscape:window-width="1866"
     inkscape:window-height="1016"
     inkscape:window-x="54"
     inkscape:window-y="27"
     inkscape:window-maximized="1" />
  <metadata
     id="metadata4306">
    <rdf:RDF>
      <cc:Work
         rdf:about="">
        <dc:format>image/svg+xml</dc:format>
        <dc:type
           rdf:resource="http://purl.org/dc/dcmitype/StillImage" />
        <dc:title></dc:title>
      </cc:Work>
    </rdf:RDF>
  </metadata>
  <g
     inkscape:label="Layer 1"
     inkscape:groupmode="layer"
     id="layer1"
     transform="translate(35.431919,-133.37566)">
    <g
       transform="matrix(0.26458333,0,0,0.26458333,-50.256523,130.9788)"
       data-name="Group 153"
       id="Group_153">
      <g
         transform="translate(65.03,15.055)"
         data-name="Group 91"
         id="Group_91">
        <g
           id="g1115"
           transform="translate(-94.03,-31.35)"
           class="cls-84"
           style="filter:url(#Path_1608)">
          <path
             transform="translate(-694.45,-41.86)"
             d="m 983.924,132.707 a 30.187,30.187 0 0 0 -8.67,-7.521 h 16.81 l -3.538,-4.246 h -26.368 q -2.833,-0.442 -4.866,-0.708 a 26.618,26.618 0 0 0 -3.274,-0.265 8.588,8.588 0 0 0 -1.681,0.177 l -0.265,4.512 a 8.379,8.379 0 0 0 -6.459,-3.628 1.514,1.514 0 0 1 -0.62,-0.088 h -23.447 a 9.247,9.247 0 0 1 -2.211,-2.522 6.131,6.131 0 0 1 -0.8,-3.142 13.281,13.281 0 0 1 0.4,-3.317 6.874,6.874 0 0 1 1.46,-2.787 14.931,14.931 0 0 1 3.849,-3.1 31.667,31.667 0 0 1 5.84,-2.654 48.044,48.044 0 0 1 7.3,-1.858 46.982,46.982 0 0 1 8.228,-0.708 30.1,30.1 0 0 1 10.263,1.549 24.971,24.971 0 0 1 6.017,2.875 l 1.769,1.328 0.089,0.088 a 1,1 0 0 0 -0.222,0.62 8.57,8.57 0 0 0 -0.044,0.885 2.341,2.341 0 0 0 0.708,1.636 5.915,5.915 0 0 0 1.858,1.284 10.84,10.84 0 0 0 2.655,0.8 17.272,17.272 0 0 0 3.008,0.265 3.47,3.47 0 0 0 1.328,-0.221 0.717,0.717 0 0 0 0.53,-0.664 q 0,-0.53 -2.212,-2.831 a 33.029,33.029 0 0 0 -6.591,-4.955 52.164,52.164 0 0 0 -10.968,-4.781 54.054,54.054 0 0 0 -15.439,-2.3 58.838,58.838 0 0 0 -14.2,1.681 38.712,38.712 0 0 0 -10.042,3.982 19.583,19.583 0 0 0 -5.927,5.087 8.665,8.665 0 0 0 -1.948,4.911 8.5,8.5 0 0 0 0.62,3.1 10.907,10.907 0 0 0 1.593,2.831 l 2.212,2.921 h -4.951 v 0 h -50.174 a 20.993,20.993 0 0 0 0.531,-5.042 16.714,16.714 0 0 0 -1.107,-6.282 10.36,10.36 0 0 0 -3.716,-4.6 20.267,20.267 0 0 0 -6.768,-2.92 51.237,51.237 0 0 0 -10.264,-1.328 h -0.8 q -14.6,0 -21.235,3.274 a 42.972,42.972 0 0 0 -5.044,2.787 13.162,13.162 0 0 0 -2.566,2.123 3.84,3.84 0 0 0 -0.929,1.593 6.18,6.18 0 0 0 -0.132,1.194 v 0.178 h 1.327 q 5.928,0 8.848,-2.654 l 0.177,-0.088 a 5.234,5.234 0 0 1 2.3,-1.372 27.338,27.338 0 0 1 4.2,-1.15 q 2.432,-0.486 5.22,-0.8 a 49.319,49.319 0 0 1 5.44,-0.31 q 7.61,0 10.795,1.947 a 6.476,6.476 0 0 1 3.185,5.928 15.956,15.956 0 0 1 -1.858,7.521 h -54.672 l 3.628,4.246 h 27.783 v 22.387 l 0.177,0.088 a 17.033,17.033 0 0 0 3.982,2.743 13.165,13.165 0 0 0 6.282,1.415 15.756,15.756 0 0 0 6.326,-1.283 14.52,14.52 0 0 0 5,-3.5 l 1.062,-1.15 a 42.388,42.388 0 0 1 -0.707,8.228 13.968,13.968 0 0 1 -5.487,6.591 q -4.071,2.787 -10.882,2.787 -8.85,0 -15.75,-8.14 a 18.034,18.034 0 0 0 -2.965,-2.7 13.879,13.879 0 0 0 -3.406,-1.77 18.747,18.747 0 0 0 -4.07,-0.929 42.8,42.8 0 0 0 -5.043,-0.265 l -2.213,0.088 a 45.235,45.235 0 0 0 15.351,13.936 41.913,41.913 0 0 0 20.307,4.822 q 13.8,0 20.748,-4.292 a 14.5,14.5 0 0 0 7.3,-12.343 l 0.177,-4.512 -0.177,-15.041 q -0.619,-0.177 -2.655,-0.93 -2.036,-0.753 -5.751,-1.813 l -3.1,-0.886 q -2.035,3.806 -3.584,6.415 -1.549,2.609 -2.743,4.38 a 18.95,18.95 0 0 1 -2.211,2.788 11.808,11.808 0 0 1 -1.99,1.636 h -0.177 q -1.859,0 -1.858,-16.014 v -2.744 h 60.962 v 9.92 l -7.52,-5.756 a 13.094,13.094 0 0 0 -8.672,-2.744 4.035,4.035 0 0 0 -1.908,0.443 6.125,6.125 0 0 0 -1.458,1.056 q -13.449,14.159 -13.447,17.964 l 0.077,0.466 0.011,0.065 a 6.8,6.8 0 0 0 2.166,3.187 13.937,13.937 0 0 0 3.938,2.344 24.987,24.987 0 0 0 5.13,1.417 33.45,33.45 0 0 0 5.667,0.484 c 0.631,0 1.239,-0.024 1.83,-0.083 l 0.077,-0.147 a 4.661,4.661 0 0 1 1.316,-0.862 4.29,4.29 0 0 1 1.86,-0.408 17.407,17.407 0 0 1 1.877,0.1 13.1,13.1 0 0 0 2.5,-1.429 8.758,8.758 0 0 0 2.568,-2.881 7.063,7.063 0 0 0 0.861,-2.768 c 0.018,-0.183 0.023,-0.366 0.023,-0.549 a 5.14,5.14 0 0 0 -0.884,-2.916 10.941,10.941 0 0 0 -2.037,-2.3 9.827,9.827 0 0 0 -2.343,-1.506 4.99,4.99 0 0 0 -1.812,-0.531 h -0.531 a 9.8,9.8 0 0 0 -3.365,1.151 9.4,9.4 0 0 0 -2.166,1.724 6.215,6.215 0 0 0 -1.193,1.818 8.77,8.77 0 0 0 -0.442,1.321 0.792,0.792 0 0 1 -0.136,0.4 c -0.013,0.018 -0.024,0.041 -0.036,0.059 a 0.931,0.931 0 0 0 -0.095,0.425 2.49,2.49 0 0 0 0.886,1.682 c 0.194,0.195 0.377,0.36 0.536,0.5 a 2.029,2.029 0 0 0 0.791,0.472 l 0.266,0.177 -0.089,0.088 a 2.031,2.031 0 0 1 -1.5,0.531 7.23,7.23 0 0 1 -2.568,-0.353 3.409,3.409 0 0 1 -1.281,-0.8 2.646,2.646 0 0 1 -0.578,-1.063 2.135,2.135 0 0 1 0.082,-0.548 3.688,3.688 0 0 1 0.272,-0.691 l 9.823,-10.79 q 8.137,4.24 11.505,14.067 v 10.8 l -2.833,-2.567 a 12.79,12.79 0 0 0 -8.14,-2.568 4.163,4.163 0 0 0 -1.813,0.4 4.632,4.632 0 0 0 -1.287,0.839 l -0.089,0.177 q -12.654,13.185 -12.651,16.813 l 0.089,0.531 a 5.062,5.062 0 0 0 0.384,0.909 6.469,6.469 0 0 0 1.694,2.054 14.385,14.385 0 0 0 3.672,2.167 21.886,21.886 0 0 0 4.646,1.328 28.823,28.823 0 0 0 5,0.443 q 6.367,0 10,-2.833 c 0.023,-0.113 0.041,-0.219 0.059,-0.331 a 19.134,19.134 0 0 0 0.295,-3.471 12.741,12.741 0 0 0 -1.328,-6.151 q -1.329,-2.435 -3.1,-2.432 h -0.443 a 9.178,9.178 0 0 0 -3.14,1.151 8.61,8.61 0 0 0 -2.036,1.682 7.113,7.113 0 0 0 -1.1,1.677 8.219,8.219 0 0 0 -0.442,1.151 0.588,0.588 0 0 1 -0.13,0.355 0.744,0.744 0 0 0 -0.1,0.195 0.8,0.8 0 0 0 -0.036,0.247 c 0,0.915 0.662,1.742 1.983,2.491 0.047,0.024 0.095,0.054 0.142,0.077 l 0.266,0.177 h -0.089 c -0.059,0.06 -0.177,0.16 -0.354,0.307 a 1.978,1.978 0 0 1 -1.151,0.224 4.545,4.545 0 0 1 -3.093,-0.932 c -0.709,-0.62 -1.063,-0.986 -1.063,-1.1 a 1.5,1.5 0 0 1 0.064,-0.366 6.011,6.011 0 0 1 0.378,-0.874 l 9.2,-10.087 a 13.358,13.358 0 0 1 6.287,7.166 c 0,6.2 0.053,9.528 0.177,10 a 3.832,3.832 0 0 0 1.323,1.64 19.95,19.95 0 0 0 2.567,1.677 28.188,28.188 0 0 0 3.276,1.553 20.469,20.469 0 0 0 3.536,1.056 v -58.305 h 7.344 v 39.552 l 0.178,0.53 a 4.638,4.638 0 0 0 1.548,1.9 16.66,16.66 0 0 0 2.478,1.549 19.609,19.609 0 0 0 2.831,1.194 q 1.46,0.488 2.61,0.841 l 1.5,0.443 v -46.01 h 20.615 a 30.051,30.051 0 0 1 6.459,3.142 6.058,6.058 0 0 1 2.654,4.733 l -0.708,12.122 1.416,0.354 q 7.7,1.947 10.263,1.946 a 4.737,4.737 0 0 0 3.009,-1.238 15.9,15.9 0 0 0 2.655,-2.787 20.356,20.356 0 0 0 1.858,-2.964 5.8,5.8 0 0 0 0.708,-1.858 2.816,2.816 0 0 0 -1.5,-2.257 24.853,24.853 0 0 0 -5.574,-2.345 l -0.531,-0.265 v -7.432 l 1.416,0.885 a 44.507,44.507 0 0 1 5.486,3.981 18.66,18.66 0 0 1 3.318,3.672 12.294,12.294 0 0 1 1.68,3.716 16.2,16.2 0 0 1 0.487,4.026 19.627,19.627 0 0 1 -1.017,6.238 15.482,15.482 0 0 1 -3.141,5.441 14.965,14.965 0 0 1 -5.487,3.8 20.421,20.421 0 0 1 -7.968,1.421 19.1,19.1 0 0 1 -8.494,-1.991 23.868,23.868 0 0 1 -7.609,-6.15 18.143,18.143 0 0 0 -3.142,-2.965 12.828,12.828 0 0 0 -3.406,-1.725 17.482,17.482 0 0 0 -4.158,-0.8 q -2.3,-0.177 -5.4,-0.178 l -1.5,0.088 q 13.092,18.671 36.011,18.67 13.182,0 19.465,-3.716 a 13.58,13.58 0 0 0 3.585,-3.185 19.941,19.941 0 0 0 2.609,-4.336 24.061,24.061 0 0 0 1.593,-5 25.871,25.871 0 0 0 0.531,-5.176 13.286,13.286 0 0 0 -1.15,-5.308 23.234,23.234 0 0 0 -3.011,-5.037 z"
             class="cls-6"
             data-name="Path 1608"
             id="Path_1608-2"
             inkscape:connector-curvature="0"
             style="fill:#0d2454" />
        </g>
        <g
           transform="translate(169.713)"
           data-name="Group 88"
           id="Group_88">
          <g
             id="g1118"
             transform="translate(-263.74,-31.35)"
             class="cls-83"
             style="filter:url(#Path_1609)">
            <path
               transform="translate(-685.08,-43.01)"
               d="m 968.307,100.349 45.469,-25.982 -25.982,51.965 z"
               class="cls-7"
               data-name="Path 1609"
               id="Path_1609-2"
               inkscape:connector-curvature="0"
               style="fill:#0092d2;fill-rule:evenodd" />
          </g>
          <g
             id="g1121"
             transform="translate(-263.74,-31.35)"
             class="cls-82"
             style="filter:url(#Path_1610)">
            <path
               transform="translate(-686.04,-43.01)"
               d="M 962.776,87.357 1014.74,74.366 H 949.784 Z"
               class="cls-8"
               data-name="Path 1610"
               id="Path_1610-2"
               inkscape:connector-curvature="0"
               style="fill:#1e519f;fill-rule:evenodd" />
          </g>
          <g
             id="g1124"
             transform="translate(-263.74,-31.35)"
             class="cls-81"
             style="filter:url(#Path_1611)">
            <path
               transform="translate(-685.4,-43.01)"
               d="m 962.133,87.357 19.487,5.568 32.48,-18.559 z"
               class="cls-9"
               data-name="Path 1611"
               id="Path_1611-2"
               inkscape:connector-curvature="0"
               style="fill:#0a2777;fill-rule:evenodd" />
          </g>
        </g>
      </g>
      <text
         transform="translate(204.465,122.394)"
         class="cls-10"
         data-name="Dashboard"
         id="Dashboard-2"
         style="font-size:17px;font-family:SegoeUI, 'Segoe UI';fill:#0092d2">
        <tspan
           id="tspan1128"
           y="0"
           x="0">DASHBOARD</tspan>
      </text>
    </g>
  </g>
</svg>
